<svg version="1.1" id="Layer_1" xmlns="http://www.w3.org/2000/svg" xmlns:xlink="http://www.w3.org/1999/xlink" x="0px" y="0px"
	 width="100%" viewBox="0 0 2000 1500" enable-background="new 0 0 2000 1500" xml:space="preserve">
<path fill="#FFFFFF" opacity="1.000000" stroke="none" 
	d="
M1046.000000,1501.000000 
	C697.333435,1501.000000 349.166870,1501.000000 1.000234,1501.000000 
	C1.000156,1001.000244 1.000156,501.000519 1.000078,1.000569 
	C667.666199,1.000379 1334.332397,1.000379 2000.999023,1.000190 
	C2000.999268,500.999390 2000.999268,1000.998779 2000.999634,1500.999023 
	C1682.833374,1501.000000 1364.666626,1501.000000 1046.000000,1501.000000 
M1084.415161,1243.932861 
	C1099.203857,1240.735962 1114.152710,1238.140137 1128.755249,1234.245117 
	C1226.194092,1208.255249 1308.575439,1157.484741 1375.353027,1082.009888 
	C1445.143188,1003.129700 1485.766357,910.946960 1497.800049,806.327454 
	C1503.510620,756.682617 1501.496826,707.227539 1492.139526,658.102051 
	C1474.343750,564.674744 1433.584229,482.522125 1368.924927,412.920410 
	C1280.298584,317.519531 1170.697021,263.999969 1040.745483,252.818634 
	C985.483276,248.063766 930.927124,252.812637 877.278442,266.662231 
	C778.777344,292.090698 695.279785,342.688171 627.788635,418.758148 
	C546.877197,509.954254 505.107147,617.073425 501.282623,738.841675 
	C499.778748,786.723022 505.293701,833.985657 518.084778,880.186340 
	C552.864868,1005.810303 625.320862,1103.946045 735.079956,1174.095703 
	C804.084839,1218.198364 879.910461,1242.682129 961.560181,1249.252197 
	C1002.459167,1252.543213 1043.095093,1250.666626 1084.415161,1243.932861 
z"/>
<path fill="#EE3E38" opacity="1.000000" stroke="none" 
	d="
M1083.981323,1243.978271 
	C1043.095093,1250.666626 1002.459167,1252.543213 961.560181,1249.252197 
	C879.910461,1242.682129 804.084839,1218.198364 735.079956,1174.095703 
	C625.320862,1103.946045 552.864868,1005.810303 518.084778,880.186340 
	C505.293701,833.985657 499.778748,786.723022 501.282623,738.841675 
	C505.107147,617.073425 546.877197,509.954254 627.788635,418.758148 
	C695.279785,342.688171 778.777344,292.090698 877.278442,266.662231 
	C930.927124,252.812637 985.483276,248.063766 1040.745483,252.818634 
	C1170.697021,263.999969 1280.298584,317.519531 1368.924927,412.920410 
	C1433.584229,482.522125 1474.343750,564.674744 1492.139526,658.102051 
	C1501.496826,707.227539 1503.510620,756.682617 1497.800049,806.327454 
	C1485.766357,910.946960 1445.143188,1003.129700 1375.353027,1082.009888 
	C1308.575439,1157.484741 1226.194092,1208.255249 1128.755249,1234.245117 
	C1114.152710,1238.140137 1099.203857,1240.735962 1083.981323,1243.978271 
M1158.951904,996.468994 
	C1161.091309,995.182800 1163.239136,993.910217 1165.369141,992.608459 
	C1200.235474,971.298950 1225.476929,942.036926 1239.628784,903.416504 
	C1245.929321,886.222290 1248.231934,868.236450 1250.923706,850.333374 
	C1252.054688,842.811768 1252.651855,835.067322 1252.259399,827.487976 
	C1251.329468,809.526245 1244.121338,793.597839 1234.158691,778.976685 
	C1212.093262,746.593994 1182.176880,723.311890 1146.953613,707.085693 
	C1128.435181,698.554932 1108.862915,692.314758 1089.779419,685.006592 
	C1077.114258,680.156372 1064.518921,674.850525 1055.706543,664.095520 
	C1051.291138,658.706726 1047.793091,652.221863 1045.317017,645.688171 
	C1043.000610,639.575317 1044.411133,638.247314 1050.984009,637.096558 
	C1069.653687,633.827942 1088.244263,629.742004 1107.053589,627.742188 
	C1125.220581,625.810730 1143.712646,624.610474 1161.896240,625.745056 
	C1185.107544,627.193359 1208.170410,631.178711 1231.251587,634.397644 
	C1235.064331,634.929382 1237.579956,634.114380 1240.051392,631.461426 
	C1248.483765,622.410339 1251.081665,611.251648 1252.080566,599.406128 
	C1254.860840,566.438538 1248.473877,533.984558 1246.644409,501.276733 
	C1246.580200,500.131317 1245.920044,498.772980 1245.096069,497.963440 
	C1242.803223,495.710938 1240.043945,493.906769 1237.899170,491.536194 
	C1234.828369,488.142059 1232.038818,485.064514 1226.698486,485.484772 
	C1222.777100,485.793335 1218.722656,485.045105 1214.785034,484.410889 
	C1188.513306,480.179321 1162.367554,474.911713 1135.966309,471.804108 
	C1106.060425,468.283997 1075.968872,465.748810 1045.886597,464.478699 
	C1012.728210,463.078735 979.641541,465.911652 946.835938,471.165741 
	C915.133789,476.243103 884.351501,484.368958 855.873779,499.738190 
	C825.460571,516.151917 800.293274,538.052551 783.992615,569.081421 
	C772.800415,590.386047 767.780090,613.333252 766.394043,637.180725 
	C764.400696,671.476196 770.792175,703.660400 789.665710,732.999146 
	C806.239807,758.763672 829.218262,777.125610 855.079407,792.713257 
	C888.206421,812.680420 923.198669,828.965271 957.780762,846.081299 
	C959.510742,846.937561 961.221191,847.833191 962.938416,848.709290 
	C959.219177,859.576355 951.080139,863.647705 941.093689,865.996948 
	C917.648376,871.512451 893.975281,868.408691 870.400330,868.327271 
	C854.019958,868.270691 837.923828,865.466553 822.219910,860.709229 
	C801.404541,854.403442 781.974121,845.026123 763.211121,834.133362 
	C761.674133,833.241028 758.821350,832.655457 757.625122,833.467407 
	C751.742981,837.459717 748.549500,843.012512 749.604370,850.475220 
	C752.120056,868.272766 754.522400,886.086365 757.064575,903.880127 
	C760.903015,930.746704 765.624329,957.424011 773.997559,983.335754 
	C775.081665,986.690735 776.651306,989.025391 779.786072,990.870789 
	C803.928955,1005.082703 829.860779,1014.931580 856.858582,1021.841125 
	C914.989502,1036.718750 973.974670,1041.310669 1033.722656,1035.114014 
	C1077.765137,1030.546143 1119.407227,1018.123169 1158.951904,996.468994 
z"/>
<path fill="#FFFFFF" opacity="1.000000" stroke="none" 
	d="
M1158.640381,996.663208 
	C1119.407227,1018.123169 1077.765137,1030.546143 1033.722656,1035.114014 
	C973.974670,1041.310669 914.989502,1036.718750 856.858582,1021.841125 
	C829.860779,1014.931580 803.928955,1005.082703 779.786072,990.870789 
	C776.651306,989.025391 775.081665,986.690735 773.997559,983.335754 
	C765.624329,957.424011 760.903015,930.746704 757.064575,903.880127 
	C754.522400,886.086365 752.120056,868.272766 749.604370,850.475220 
	C748.549500,843.012512 751.742981,837.459717 757.625122,833.467407 
	C758.821350,832.655457 761.674133,833.241028 763.211121,834.133362 
	C781.974121,845.026123 801.404541,854.403442 822.219910,860.709229 
	C837.923828,865.466553 854.019958,868.270691 870.400330,868.327271 
	C893.975281,868.408691 917.648376,871.512451 941.093689,865.996948 
	C951.080139,863.647705 959.219177,859.576355 962.938416,848.709290 
	C961.221191,847.833191 959.510742,846.937561 957.780762,846.081299 
	C923.198669,828.965271 888.206421,812.680420 855.079407,792.713257 
	C829.218262,777.125610 806.239807,758.763672 789.665710,732.999146 
	C770.792175,703.660400 764.400696,671.476196 766.394043,637.180725 
	C767.780090,613.333252 772.800415,590.386047 783.992615,569.081421 
	C800.293274,538.052551 825.460571,516.151917 855.873779,499.738190 
	C884.351501,484.368958 915.133789,476.243103 946.835938,471.165741 
	C979.641541,465.911652 1012.728210,463.078735 1045.886597,464.478699 
	C1075.968872,465.748810 1106.060425,468.283997 1135.966309,471.804108 
	C1162.367554,474.911713 1188.513306,480.179321 1214.785034,484.410889 
	C1218.722656,485.045105 1222.777100,485.793335 1226.698486,485.484772 
	C1232.038818,485.064514 1234.828369,488.142059 1237.899170,491.536194 
	C1240.043945,493.906769 1242.803223,495.710938 1245.096069,497.963440 
	C1245.920044,498.772980 1246.580200,500.131317 1246.644409,501.276733 
	C1248.473877,533.984558 1254.860840,566.438538 1252.080566,599.406128 
	C1251.081665,611.251648 1248.483765,622.410339 1240.051392,631.461426 
	C1237.579956,634.114380 1235.064331,634.929382 1231.251587,634.397644 
	C1208.170410,631.178711 1185.107544,627.193359 1161.896240,625.745056 
	C1143.712646,624.610474 1125.220581,625.810730 1107.053589,627.742188 
	C1088.244263,629.742004 1069.653687,633.827942 1050.984009,637.096558 
	C1044.411133,638.247314 1043.000610,639.575317 1045.317017,645.688171 
	C1047.793091,652.221863 1051.291138,658.706726 1055.706543,664.095520 
	C1064.518921,674.850525 1077.114258,680.156372 1089.779419,685.006592 
	C1108.862915,692.314758 1128.435181,698.554932 1146.953613,707.085693 
	C1182.176880,723.311890 1212.093262,746.593994 1234.158691,778.976685 
	C1244.121338,793.597839 1251.329468,809.526245 1252.259399,827.487976 
	C1252.651855,835.067322 1252.054688,842.811768 1250.923706,850.333374 
	C1248.231934,868.236450 1245.929321,886.222290 1239.628784,903.416504 
	C1225.476929,942.036926 1200.235474,971.298950 1165.369141,992.608459 
	C1163.239136,993.910217 1161.091309,995.182800 1158.640381,996.663208 
z"/>
</svg>